<svg id="Layer_1" data-name="Layer 1" xmlns="http://www.w3.org/2000/svg" xmlns:xlink="http://www.w3.org/1999/xlink" viewBox="0 0 1188 406.5"><defs><style>.cls-1{fill:#fff;}.cls-2,.cls-3,.cls-4,.cls-5{fill-rule:evenodd;}.cls-2{fill:url(#linear-gradient);}.cls-3{fill:url(#linear-gradient-2);}.cls-4{fill:url(#linear-gradient-3);}.cls-5{fill:url(#linear-gradient-4);}</style><linearGradient id="linear-gradient" x1="3456.87" y1="1536.23" x2="3305.53" y2="1614.35" gradientTransform="translate(-4357.45 -3859.07) scale(1.32 2.56)" gradientUnits="userSpaceOnUse"><stop offset="0" stop-color="#00a0ff"/><stop offset="0.01" stop-color="#00a1ff"/><stop offset="0.26" stop-color="#00beff"/><stop offset="0.51" stop-color="#00d2ff"/><stop offset="0.76" stop-color="#00dfff"/><stop offset="1" stop-color="#00e3ff"/></linearGradient><linearGradient id="linear-gradient-2" x1="4071.81" y1="3148.06" x2="3796.22" y2="3148.06" gradientTransform="translate(-3874.99 -2545.61) scale(1.04 0.87)" gradientUnits="userSpaceOnUse"><stop offset="0" stop-color="#ffe000"/><stop offset="0.41" stop-color="#ffbd00"/><stop offset="0.78" stop-color="orange"/><stop offset="1" stop-color="#ff9c00"/></linearGradient><linearGradient id="linear-gradient-3" x1="3082.58" y1="2375.81" x2="2920.96" y2="2585.49" gradientTransform="translate(-5009.09 -2888.23) scale(1.7 1.31)" gradientUnits="userSpaceOnUse"><stop offset="0" stop-color="#ff3a44"/><stop offset="1" stop-color="#c31162"/></linearGradient><linearGradient id="linear-gradient-4" x1="2958.11" y1="2174.03" x2="3030.28" y2="2267.71" gradientTransform="translate(-5009.09 -2889.17) scale(1.7 1.31)" gradientUnits="userSpaceOnUse"><stop offset="0" stop-color="#32a071"/><stop offset="0.07" stop-color="#2da771"/><stop offset="0.48" stop-color="#15cf74"/><stop offset="0.8" stop-color="#06e775"/><stop offset="1" stop-color="#00f076"/></linearGradient></defs><rect width="1188" height="406.5" rx="41.13"/><path class="cls-1" d="M459.53,311.91a27.33,27.33,0,0,1-12,7.89,50.25,50.25,0,0,1-17.2,2.8,34.11,34.11,0,0,1-17.38-4.32,28.88,28.88,0,0,1-11.53-12.56,44.2,44.2,0,0,1-4.17-19.35v-5.19a47.08,47.08,0,0,1,3.85-19.79,28.53,28.53,0,0,1,11.12-12.79,32,32,0,0,1,17-4.43q13.57,0,21.24,6.47t9.07,18.85H444.22q-1.05-6.56-4.64-9.59t-9.89-3q-8,0-12.21,6t-4.25,17.94v4.87q0,12,4.56,18.14T431.16,310q8.86,0,12.64-3.78V293H429.49V281.44h30Z"/><path class="cls-1" d="M468.91,292.66a33.58,33.58,0,0,1,3.25-15,23.8,23.8,0,0,1,9.36-10.23,27.31,27.31,0,0,1,14.18-3.61q11.49,0,18.75,7t8.1,19.09l.1,3.88q0,13.05-7.29,20.94t-19.55,7.89q-12.27,0-19.58-7.86t-7.32-21.39Zm15.15,1.08q0,8.08,3,12.37a10.93,10.93,0,0,0,17.31.05q3.09-4.23,3.09-13.52,0-7.93-3.09-12.29A10.09,10.09,0,0,0,495.7,276a9.92,9.92,0,0,0-8.6,4.33Q484.07,284.65,484.06,293.74Z"/><path class="cls-1" d="M529.63,292.66a33.58,33.58,0,0,1,3.25-15,23.72,23.72,0,0,1,9.35-10.23,27.35,27.35,0,0,1,14.19-3.61q11.48,0,18.74,7t8.1,19.09l.11,3.88q0,13.05-7.29,20.94t-19.56,7.89q-12.27,0-19.58-7.86t-7.31-21.39Zm15.15,1.08q0,8.08,3,12.37a10.92,10.92,0,0,0,17.3.05q3.09-4.23,3.09-13.52,0-7.93-3.09-12.29a10.06,10.06,0,0,0-8.7-4.36,9.91,9.91,0,0,0-8.6,4.33Q544.77,284.65,544.78,293.74Z"/><path class="cls-1" d="M590.5,292.77q0-13,6.21-21t16.75-8q9.33,0,14.52,6.39l.63-5.35h13.74v54.85A24.29,24.29,0,0,1,639,332.62a21.72,21.72,0,0,1-9.52,8.38,33.34,33.34,0,0,1-14.36,2.89,31.14,31.14,0,0,1-12.17-2.49,21.53,21.53,0,0,1-9-6.42l6.71-9.23a17.73,17.73,0,0,0,13.73,6.34q6,0,9.39-3.22t3.35-9.15v-3a17.51,17.51,0,0,1-13.78,5.92,20.1,20.1,0,0,1-16.55-8q-6.31-8-6.31-21.21Zm15.15,1.13q0,7.71,3.09,12.1a9.85,9.85,0,0,0,8.5,4.39q6.91,0,9.9-5.2V281.3q-3-5.21-9.8-5.2a9.9,9.9,0,0,0-8.57,4.46Q605.65,285,605.65,293.9Z"/><path class="cls-1" d="M670,321.55h-15.2V241H670Z"/><path class="cls-1" d="M708.57,322.6q-12.48,0-20.32-7.65t-7.84-20.4v-1.47a34.17,34.17,0,0,1,3.31-15.28,24.26,24.26,0,0,1,9.35-10.38,26.29,26.29,0,0,1,13.82-3.64q11.64,0,18.32,7.34t6.69,20.81v6.19H695.78a14,14,0,0,0,4.43,8.91,13.36,13.36,0,0,0,9.35,3.36q8.76,0,13.69-6.35l7.44,8.34a22.75,22.75,0,0,1-9.22,7.52A30.28,30.28,0,0,1,708.57,322.6ZM706.84,276a9.47,9.47,0,0,0-7.32,3.06q-2.81,3-3.59,8.74H717v-1.21q-.1-5.06-2.73-7.82T706.84,276Z"/><path class="cls-1" d="M784,294.66v26.89H768.23V245.22H798a34.43,34.43,0,0,1,15.13,3.14,23.21,23.21,0,0,1,10,8.94,24.94,24.94,0,0,1,3.51,13.19q0,11.22-7.68,17.69t-21.26,6.48Zm0-12.74h14q6.24,0,9.52-2.94c2.18-2,3.28-4.75,3.28-8.39a12.61,12.61,0,0,0-3.31-9.07q-3.3-3.47-9.12-3.56H784Z"/><path class="cls-1" d="M852.49,321.55H837.28V241h15.21Z"/><path class="cls-1" d="M897.84,321.55a16.58,16.58,0,0,1-1.52-5.08A18.33,18.33,0,0,1,882,322.6a20.16,20.16,0,0,1-13.81-4.82,15.53,15.53,0,0,1-5.48-12.17q0-9,6.69-13.84t19.32-4.87h7v-3.25a9.3,9.3,0,0,0-2-6.29c-1.35-1.58-3.47-2.36-6.37-2.36a9,9,0,0,0-6,1.83,6.23,6.23,0,0,0-2.18,5H864a15.21,15.21,0,0,1,3-9.12,20.06,20.06,0,0,1,8.6-6.58,31.31,31.31,0,0,1,12.48-2.38q10.49,0,16.64,5.26t6.16,14.82v24.59q.06,8.07,2.26,12.21v.89ZM885.31,311a13,13,0,0,0,6.18-1.49,9.83,9.83,0,0,0,4.2-4v-9.75H890q-11.38,0-12.11,7.86l-.06.89a6.07,6.07,0,0,0,2,4.67A7.73,7.73,0,0,0,885.31,311Z"/><path class="cls-1" d="M942.93,300.11l10.48-35.29h16.26l-22.81,65.54-1.26,3q-5.08,11.11-16.78,11.11a24,24,0,0,1-6.71-1V332l2.31.05q4.3,0,6.42-1.31a8.62,8.62,0,0,0,3.33-4.35l1.78-4.67-19.87-56.89h16.31Z"/><path class="cls-1" d="M438.32,156.84H407l-7.1,19.37H393.8l26.1-69h5.54l26.1,69h-6.07Zm-29.51-4.93h27.67l-13.84-37.56Z"/><path class="cls-1" d="M473.94,168.39,489.52,125h5.83l-19.14,51.25h-4.59L452.39,125h5.83Z"/><path class="cls-1" d="M536.27,176.21a26.85,26.85,0,0,1-1.09-7.15,19.79,19.79,0,0,1-7.6,6,23.37,23.37,0,0,1-9.78,2.11q-7.39,0-12-4.13a13.4,13.4,0,0,1-4.57-10.42,13.74,13.74,0,0,1,6.23-11.84q6.22-4.35,17.36-4.35h10.28v-5.83a11.22,11.22,0,0,0-3.39-8.64q-3.39-3.15-9.88-3.15a15.46,15.46,0,0,0-9.8,3,9,9,0,0,0-3.88,7.29l-5.69-.05q0-6.1,5.69-10.58a21.84,21.84,0,0,1,14-4.48q8.57,0,13.52,4.29t5.09,12v24.25q0,7.44,1.57,11.13v.57Zm-17.81-4.08a19,19,0,0,0,10.16-2.74,16.16,16.16,0,0,0,6.52-7.34V150.77H525q-8.47.1-13.26,3.11a9.31,9.31,0,0,0-4.79,8.26,9.16,9.16,0,0,0,3.2,7.15A12,12,0,0,0,518.46,172.13Z"/><path class="cls-1" d="M555.55,110.16a3.83,3.83,0,0,1,1-2.71,3.71,3.71,0,0,1,2.84-1.11,3.73,3.73,0,0,1,3.94,3.82,3.68,3.68,0,0,1-1.07,2.68,3.85,3.85,0,0,1-2.87,1.08,3.64,3.64,0,0,1-3.88-3.76Zm6.68,66.05h-5.68V125h5.68Z"/><path class="cls-1" d="M584,176.21h-5.68V103.46H584Z"/><path class="cls-1" d="M631.71,176.21a26.85,26.85,0,0,1-1.09-7.15,19.79,19.79,0,0,1-7.6,6,23.37,23.37,0,0,1-9.78,2.11q-7.38,0-12-4.13a13.4,13.4,0,0,1-4.57-10.42,13.74,13.74,0,0,1,6.23-11.84q6.22-4.35,17.36-4.35h10.28v-5.83a11.22,11.22,0,0,0-3.39-8.64q-3.39-3.15-9.88-3.15a15.46,15.46,0,0,0-9.8,3,9,9,0,0,0-3.88,7.29l-5.69-.05q0-6.1,5.69-10.58a21.84,21.84,0,0,1,14-4.48q8.56,0,13.52,4.29t5.09,12v24.25q0,7.44,1.57,11.13v.57Zm-17.81-4.08a19,19,0,0,0,10.16-2.74,16.16,16.16,0,0,0,6.52-7.34V150.77H620.44q-8.48.1-13.26,3.11a9.31,9.31,0,0,0-4.79,8.26,9.16,9.16,0,0,0,3.2,7.15A12,12,0,0,0,613.9,172.13Z"/><path class="cls-1" d="M692.58,151.1q0,12-5.31,19a16.93,16.93,0,0,1-14.25,7q-10.71,0-16.2-8l-.24,7h-5.31V103.46h5.64V132.4q5.4-8.39,16-8.39A17.14,17.14,0,0,1,687.3,131q5.28,6.95,5.28,19.3Zm-5.69-1q0-10.14-3.93-15.65a12.81,12.81,0,0,0-11.08-5.52,15.65,15.65,0,0,0-9.24,2.67,16.38,16.38,0,0,0-5.73,7.84v23.12q4.26,9.66,15.06,9.66a12.74,12.74,0,0,0,11-5.54Q686.89,161.14,686.89,150.11Z"/><path class="cls-1" d="M711.43,176.21h-5.69V103.46h5.69Z"/><path class="cls-1" d="M746.67,177.16a22.23,22.23,0,0,1-11.82-3.23,22,22,0,0,1-8.22-9,28,28,0,0,1-2.93-12.91v-2a30.13,30.13,0,0,1,2.86-13.31,22.8,22.8,0,0,1,8-9.31A19.69,19.69,0,0,1,745.63,124q9.33,0,14.8,6.37t5.47,17.41V151H729.33v1.09a21.48,21.48,0,0,0,5,14.52,15.88,15.88,0,0,0,12.57,5.8,18.38,18.38,0,0,0,8-1.66,17.82,17.82,0,0,0,6.33-5.3l3.55,2.7Q758.56,177.15,746.67,177.16Zm-1-48.32a14.19,14.19,0,0,0-10.78,4.69q-4.38,4.69-5.33,12.6h30.74v-.61q-.24-7.4-4.21-12A13.09,13.09,0,0,0,745.63,128.84Z"/><path class="cls-1" d="M797.4,149.83a30.13,30.13,0,0,1,2.86-13.31,21.51,21.51,0,0,1,20-12.51q10.23,0,16.57,7.18t6.35,19v1.19a30.41,30.41,0,0,1-2.87,13.38,21.37,21.37,0,0,1-8.07,9.16,22.13,22.13,0,0,1-11.89,3.23A21.1,21.1,0,0,1,803.77,170q-6.37-7.17-6.37-19Zm5.68,1.56q0,9.18,4.76,15.08a16.1,16.1,0,0,0,24.91,0q4.77-5.9,4.76-15.55v-1.09a26,26,0,0,0-2.18-10.76,17.4,17.4,0,0,0-6.11-7.55,15.63,15.63,0,0,0-9-2.68,15.14,15.14,0,0,0-12.37,5.95q-4.79,5.94-4.78,15.56Z"/><path class="cls-1" d="M860.25,125l.19,8.76a20.24,20.24,0,0,1,7.2-7.22,18.66,18.66,0,0,1,9.52-2.49q8.24,0,12.27,4.64t4.07,13.93v33.63h-5.64V142.53q0-6.87-2.91-10.23t-9.17-3.36a14.3,14.3,0,0,0-9.3,3.29,19.2,19.2,0,0,0-6,8.88v35.1h-5.64V125Z"/><path class="cls-1" d="M940.53,111.84V125h10.61v4.64H940.53v34.19c0,2.84.52,5,1.54,6.35s2.74,2.09,5.14,2.09a36.24,36.24,0,0,0,4.6-.47l.23,4.6a18.53,18.53,0,0,1-6.06.8q-5.82,0-8.48-3.39t-2.65-10V129.6h-9.43V125h9.43V111.84Z"/><path class="cls-1" d="M968.53,133.63a20,20,0,0,1,7.15-7.11A18.76,18.76,0,0,1,985.2,124q8.24,0,12.27,4.64t4.07,13.93v33.63H995.9V142.53q0-6.87-2.91-10.23t-9.17-3.36a14.3,14.3,0,0,0-9.3,3.29,19.2,19.2,0,0,0-6,8.88v35.1h-5.64V103.46h5.64Z"/><path class="cls-1" d="M1036,177.16a22.22,22.22,0,0,1-11.81-3.23,21.89,21.89,0,0,1-8.22-9,28,28,0,0,1-2.94-12.91v-2a30.13,30.13,0,0,1,2.87-13.31,22.8,22.8,0,0,1,8-9.31,19.66,19.66,0,0,1,11.08-3.39q9.33,0,14.8,6.37t5.47,17.41V151h-36.56v1.09q0,8.72,5,14.52a15.91,15.91,0,0,0,12.58,5.8,18.41,18.41,0,0,0,8-1.66,17.71,17.71,0,0,0,6.32-5.3l3.55,2.7Q1047.87,177.15,1036,177.16Zm-1-48.32a14.18,14.18,0,0,0-10.77,4.69q-4.4,4.69-5.33,12.6h30.74v-.61q-.24-7.4-4.22-12A13.08,13.08,0,0,0,1034.93,128.84Z"/><path id="path1192" class="cls-2" d="M72.52,51.39c-3.42,3.81-5.39,9.68-5.39,17.3V339.76c0,7.62,2,13.48,5.52,17.16l.92.81L220,205.85v-3.42L73.44,50.58Z"/><path id="path1203" class="cls-3" d="M268.73,256.67l-48.8-52.37h0l48.81-52.53,1.06.68,57.78,34.06c16.55,9.68,16.55,25.62,0,35.42L269.8,256s-1.07.67-1.07.67Z"/><path id="path1210" class="cls-4" d="M269.78,256l-49.9-51.78L72.52,357.07c5.38,6,14.44,6.68,24.56.81L269.78,256"/><path id="path1223" class="cls-5" d="M269.78,152.47,97.08,50.71c-10.11-6-19.18-5.18-24.56.82L219.86,204.22Z"/></svg>