<svg id="Layer_1" data-name="Layer 1" xmlns="http://www.w3.org/2000/svg" viewBox="0 0 552.7 552.7"><defs><style>.cls-1{fill:#00033f;}</style></defs><path class="cls-1" d="M323.68,113.74v57.6H305.12v38.11H286.23v18.83h37.66V210h18.93l-.09-.11c.25,6.21.51,12.41.78,19.09h18.25v19H343.55a19,19,0,0,0-.53,3c0,12.78,0,25.55,0,38.33,0,5.22-.21,10.43-.32,15.65l.13-.12H305.05v-19h18.49V248.27H304.68V267.1H285.89v19.21H267.06V324h37.68v18.89l.12-.13c-10.12.15-20.25.39-30.38.4-8.9,0-17.8-.25-26.7-.4l.12.1V305.13H228.41c0-5.11-.21-9.78.07-14.42.22-3.78-1.34-5-4.89-4.83-4.54.18-9.09,0-14.45,0V267.24H190.83v37.67h-19v18.82h18.27v19.12H171.55V324.07h-19.3V305.19h-19.8c.24-8.56.51-17.12.7-25.68.09-4.16,0-8.32,0-12.58H152.5v18.51h18.43V247.7h-18.8V229.19h-19v18.75H114.42V305h18.2l.14,37.86.09-.1H114.17V324.15h-19v-38H75.92V266.82l-.13.12H94.58V247.82H75.79l.13.14-.48-37.62-.09.09a55.57,55.57,0,0,1,6.63-.82c10.48-.09,21,0,31.75,0V190.65H95.31V171.82H113.9v18.42h19.25v18.92l18.32,1.05c.45,6,.9,12,1.39,18.55h37.75v19H229v37.73h18.71v-18.8h18.72V247.89H228.84V228.54h-19v-19h18.53V190.93h-38v18.73c-5.78,0-10.85-.08-15.92,0-7.69.15-15.38.42-23.07.63.28-3.12.76-6.23.79-9.35.1-9.6,0-19.21,0-29.35H133.52V152.46H152V133.19h19V114.3H152.61V95.41h18.7v18.28h38.21c0-9.93-.06-19.71,0-29.5,0-2.92.52-5.83.79-8.75l-.14.13h37.12V94.94H228.78v37.78l-18.71.89v18.23h18.58V132.57l18.92,1v18.37h18.95V38h19.36l-.13-.14V76.05h18.87V95.28h-18.4V114h37.64Zm-38.13,38.91h-18.8v19H248.23v56.64h18.71v-38h18.61ZM171.9,133.48V190.1H190V133.48Z"/><path class="cls-1" d="M438.94,533.7,420,534l.16.13c-.38-6.23-.76-12.45-1.16-19H381.56v37.48H362.47V514.9h18.32v-19H362.18V476.77h-19.5l.16.13V457.5h19V438.62H323.87V419.8l-.17.16h38.76v18.33H400c.31-6.35.61-12.41.9-18.47l-.1.1H419.6V381.71h19.17v18.22h19V362.19h6.61l50.49-.31-.15-.19V381.2h38v19.09H515.21v19.06h18.54v19.07h18.88v19.23H534.27V476.5h18.35v38.24h-19l.14.14V495.75H514.69l.14.14V457.57H477.08V439.19l18.75-1v-38h18.55V381.71h-37.7v19H458v18.81h19.17v19.77l-38.42-.38V420H420v19H400.79v37.78h19.14v19.07h18.81v38Z"/><path class="cls-1" d="M342.82,210V190.55h18.93v-19H343.36v-19.2H362V133.56H381.2v18.52h38.11v18.85h38.22V152.58h38v18.84H477.07v18.91H495.4V209.6H457.76v19h-19v18.79H419.49V229H400.67v37.88h-19v18.66h38.06V304.9l.14-.13H400.4v19.29H362.58v19h18.67V400.4h19.53v19.52l.1-.1H381.12V400.44H343.5V381.11h18.34V362.24h-57V342.76l-.12.13h19.34V323.76h18.76v-19l-.13.12h37.94V286H362.34V266.73h18.93v-38h18.6c.41-6.46.8-12.51,1.19-18.55,8.9-.2,17.81-.41,26.72-.57,3.44-.06,6.88,0,10.44,0V190.43H419.33V171.94H381.74v18.58H400c.42,6.94.81,13.35,1.2,19.76a17.06,17.06,0,0,0-3.1-.58q-27.68,0-55.36.16ZM362.43,171h18.48V152.77H362.43Z"/><path class="cls-1" d="M209.94,457.79H190.46v19.07H171.78v18.75h56.55v19.12H210v19.14h18.41v18.74H190.59V515.19h-19v18.44H152.5V476.78h18.42V458H152.57V438.75H190V400.87H171.53V419.3h-18.9V381.42h18.55V361.87h38.75l-.12-.1v38.29h19V381.13h19.1V361.72l-.15.17H285.5v19.58H267.13V399.9h38V381.69H323.7V420l.17-.16H266.76l.13.13V400.85H247.78v19.09l.12-.13H209.81V457.9Z"/><path class="cls-1" d="M0,0H132.86V132.83H0ZM19.13,19.05v94.76h94.49V19.05Z"/><path class="cls-1" d="M419.8,0H552.66V132.82H419.8Zm19,113.74h94.7V19.3h-94.7Z"/><path class="cls-1" d="M132.9,419.89V552.67H.13V419.89Zm-19.13,19.16H19.14v94.56h94.63Z"/><path class="cls-1" d="M38,342.86V324.33H.1v-38.1H56.82v18.61h19v38.23h19v57.14H76.12V362.67l-19.33-.94.14.15V342.75H37.81Z"/><path class="cls-1" d="M476.85,267V229.17h75.82V342.72h-19l.19.18V304.53H514.47l.15.17V285.82h18.8v-19h-56.7Z"/><path class="cls-1" d="M209.81,56.86l.4,18.71.14-.13c-2.6.18-5.21.52-7.82.53-16.51,0-33,0-49.93,0V.15h18.69v18.4h38.52V38l.13-.13H171.81V57h38.13Z"/><path class="cls-1" d="M514.82,514.75h-19v19.1h-19v18.83H438.94v-19l-.2.17h18.92V514.61h18.7V495.7h-18.3V477.22h38v18.67h18.79l-.14-.14v19.13Z"/><path class="cls-1" d="M342.68,476.77c.16,1.91.45,3.82.45,5.73q0,32.37,0,64.76c0,1.71-.16,3.42-.25,5.44H324V534c-4.63,0-8.77.06-12.92,0-8.56-.16-17.12-.38-25.68-.58l.13.16V515.07h19.32V495.76l-.14.13h19.13V476.77l-.14.13h19.12Z"/><path class="cls-1" d="M438.88,304.91V267h38l-.13-.14V342.9H457.6V304.79H438.75Z"/><path class="cls-1" d="M285.88,38V19h38V0h37.79v19l.2-.19H342.93V38.11H323.84V56.66H304.78V37.86h-19Z"/><path class="cls-1" d="M361.65,75.8c.31,6.26.62,12.51.94,19.16H400v18.76a24.13,24.13,0,0,1-3.1.42q-35.07,0-70.15,0a25.7,25.7,0,0,1-3.11-.4l.18.21V94.77h19.37V76h18.6Z"/><path class="cls-1" d="M304.87,495.76h-19V476.94h-19V457.8l-.13.12h19.32v-19h19v19h18.66v19l.14-.13H304.73v19.12Z"/><path class="cls-1" d="M361.64,19.06h38.52V56.84H381.55v19h-19.9l.18.18V56.67h19V37.79h-19V18.87Z"/><path class="cls-1" d="M37.49,209.38H.13V190.55h18.5V152.71H37.49Z"/><path class="cls-1" d="M132.76,342.88H152v19.2H133.25v38.13H114.48V362.29h18.37V342.78Z"/><path class="cls-1" d="M266.89,457.8H228.81l.12.14V438.42h19V419.81l-.12.13h19.11l-.13-.13v38.11Z"/><path class="cls-1" d="M209.93,361.87V324.36H228.6v18.5h19.3l-.12-.1v19.13l.15-.17-38.11,0Z"/><path class="cls-1" d="M56.86,247.9H38v18.68H19V229H56.7v19Z"/><path class="cls-1" d="M56.79,361.73v19.61H38v18.79H19.07V381.39H38v-19.7l-.15.19H56.93Z"/><path class="cls-1" d="M534,191.29V152.63h18.6v37.58l-18.74.93Z"/><path class="cls-1" d="M419.77,304.9h19.11l-.13-.12v38h-19l.09.1q0-19,0-38.1Z"/><path class="cls-1" d="M38,361.69H0V342.86H38l-.14-.11v19.13Z"/><path class="cls-1" d="M285.42,533.38V552.6H248.16V533.54h37.39Z"/><path class="cls-1" d="M57.26,152.54H75.63v18.67H57.26Z"/><path class="cls-1" d="M533.63,342.72v19h-19l.15.19v-19h19Z"/><path class="cls-1" d="M75.44,210.34l-18.3-1.1V191H75.35v19.45Z"/><path class="cls-1" d="M209.81,38l19.39.28-.15-.17V56.86H209.81l.13.12V37.86Z"/><path class="cls-1" d="M229.2,38.27V19.38h19.06l-.12-.15V38.1H229.05Z"/><path class="cls-1" d="M248.26,19.38V.15h18.21V19.23H248.14Z"/><path class="cls-1" d="M75.92,266.82H56.86V247.9l-.16.15L75.92,248l-.13-.14v19.12Z"/><path class="cls-1" d="M228.81,457.79v18.64H209.94V457.79l-.13.11,19.12,0Z"/><path class="cls-1" d="M533.9,191.14V209.3H515.08v-19l19,1Z"/><path class="cls-1" d="M266.6,496.24V514.5H248V496.24Z"/><path class="cls-1" d="M533.67,514.74v19.12l.13-.13h-19v-19l-.13.13h19.12Z"/><path class="cls-1" d="M420,534v18.64h-19.3V534.12h19.46Z"/><path class="cls-1" d="M533.67,533.86h18.85v18.78H533.8V533.73Z"/><path class="cls-1" d="M514.47,304.53v19.13H496.08v-19h18.54Z"/><path class="cls-1" d="M419.78,342.77V361.9H400.66v-19h19.21Z"/><path class="cls-1" d="M419.74,438.78l19.14,0v38.11H419.75Z"/><path class="cls-1" d="M38.07,94.75V38.26H94.69V94.75Z"/><path class="cls-1" d="M457.82,94.75V38.26h56.62V94.75Z"/><path class="cls-1" d="M94.7,514.62H38.2V458H94.7Z"/></svg>